<svg xmlns="http://www.w3.org/2000/svg" viewBox="0 0 24 24">
  <path fill="#10A37F" d="M22.282 9.821a5.985 5.985 0 0 0-.516-4.91 6.046 6.046 0 0 0-6.51-2.9A6.065 6.065 0 0 0 4.98 4.18a5.985 5.985 0 0 0-3.998 2.9 6.046 6.046 0 0 0 .743 7.097 5.98 5.98 0 0 0 .51 4.911 6.051 6.051 0 0 0 6.515 2.9A5.985 5.985 0 0 0 13.26 24a6.056 6.056 0 0 0 5.772-4.206 5.99 5.99 0 0 0 3.997-2.9 6.056 6.056 0 0 0-.747-7.073zM13.26 22.43a4.476 4.476 0 0 1-2.876-1.04l.141-.081 4.779-2.758a.795.795 0 0 0 .392-.681v-6.737l2.02 1.168a.071.071 0 0 1 .038.052v5.583a4.504 4.504 0 0 1-4.494 4.494zM3.6 18.304a4.47 4.47 0 0 1-.535-3.014l.142.085 4.783 2.759a.771.771 0 0 0 .78 0l5.843-3.369v2.332a.08.08 0 0 1-.033.062L9.74 19.95a4.5 4.5 0 0 1-6.14-1.646zM2.34 8.784a4.472 4.472 0 0 1 2.345-2.03v5.688a.79.79 0 0 0 .392.682l5.844 3.37-2.02 1.164a.08.08 0 0 1-.068.01L4.01 15.022a4.495 4.495 0 0 1-1.67-6.238zm16.597 3.855l-5.843-3.37 2.02-1.164a.08.08 0 0 1 .068-.01l4.823 2.647a4.5 4.5 0 0 1-.676 8.35v-5.772a.79.79 0 0 0-.392-.681zm2.01-3.023l-.141-.085-4.779-2.782a.776.776 0 0 0-.785 0L9.409 10.12V7.785a.08.08 0 0 1 .033-.062l4.84-2.793a4.5 4.5 0 0 1 6.666 4.707zm-11.66 4.31l-2.02-1.164a.08.08 0 0 1-.038-.057V7.126a4.5 4.5 0 0 1 7.37-3.454l-.142.08-4.778 2.76a.795.795 0 0 0-.392.681zm1.097-2.365l2.602-1.5 2.607 1.5v2.999l-2.607 1.5-2.602-1.5z"/>
</svg>
